<svg id="svg" version="1.1" xmlns="http://www.w3.org/2000/svg" xmlns:xlink="http://www.w3.org/1999/xlink" width="400" height="400" viewBox="0, 0, 400,400"><g id="svgg"><path id="path0" d="M313.867 43.790 C 329.188 48.881,342.965 60.196,350.890 74.197 C 356.011 83.245,358.227 90.487,360.223 104.688 C 360.872 109.306,361.180 280.584,360.556 289.648 C 357.570 333.009,333.011 357.567,289.648 360.556 C 280.599 361.180,109.702 360.870,105.078 360.222 C 76.873 356.266,58.532 344.314,47.763 322.871 C 39.108 305.637,39.077 305.211,39.077 200.000 C 39.077 107.699,39.164 104.727,42.225 92.246 C 47.740 69.754,63.445 52.131,84.961 44.289 C 89.423 42.663,88.707 42.584,83.909 44.173 C 57.560 52.898,40.301 75.093,36.547 105.078 C 34.492 121.494,34.482 286.676,36.535 302.658 C 41.478 341.131,65.707 364.109,105.469 368.034 C 113.009 368.778,288.200 368.801,294.922 368.059 C 338.419 363.255,361.656 338.355,364.451 293.555 C 364.976 285.134,364.976 122.679,364.451 114.258 C 362.596 84.523,352.470 65.057,331.857 51.601 C 326.364 48.015,313.459 42.486,310.847 42.600 C 310.575 42.612,311.934 43.147,313.867 43.790 M216.953 88.451 C 215.178 89.259,123.719 180.179,117.907 186.914 C 101.519 205.906,101.173 235.903,117.116 255.653 C 121.234 260.754,160.948 300.140,162.932 301.090 C 174.645 306.700,186.797 293.766,180.123 282.793 C 179.736 282.156,170.077 272.224,158.658 260.723 C 146.566 248.543,137.212 238.802,136.256 237.394 C 129.638 227.648,129.790 214.755,136.632 205.585 C 137.458 204.477,159.512 182.108,185.640 155.876 C 235.854 105.461,234.372 107.058,235.239 102.398 C 237.096 92.411,226.318 84.192,216.953 88.451 " stroke="none" fill="#060605" fill-rule="evenodd"></path><path id="path1" d="M114.453 39.318 C 99.176 40.109,87.626 42.543,79.049 46.780 C 56.388 57.976,43.202 77.448,40.232 104.102 C 38.628 118.508,38.612 281.020,40.214 295.313 C 44.233 331.159,67.212 355.072,101.935 359.541 C 112.203 360.863,122.920 360.994,206.836 360.825 C 290.695 360.657,291.416 360.644,300.892 359.168 C 329.770 354.672,351.411 334.968,357.939 307.227 C 360.859 294.819,360.926 292.399,360.926 199.805 C 360.926 99.029,360.863 97.765,355.019 83.008 C 344.309 55.964,321.891 41.422,287.891 39.467 C 281.914 39.123,120.890 38.985,114.453 39.318 M226.903 87.545 C 233.371 89.729,237.144 96.721,235.549 103.568 C 234.755 106.976,234.025 107.854,221.580 120.360 C 215.033 126.938,209.828 132.412,210.014 132.524 C 210.200 132.637,211.555 133.098,213.026 133.551 C 223.246 136.693,228.285 140.469,245.746 158.070 C 259.927 172.365,259.960 172.412,259.960 178.320 C 259.960 187.358,252.323 193.434,243.724 191.237 C 240.064 190.302,239.651 189.954,225.977 176.307 C 219.102 169.446,212.686 163.292,211.719 162.633 C 202.988 156.675,192.601 155.949,183.203 160.639 C 180.064 162.206,144.716 196.576,137.879 204.709 C 129.931 214.164,130.100 229.052,138.271 239.222 C 143.702 245.981,180.205 281.480,183.203 282.918 C 191.042 286.678,200.762 286.787,207.837 283.195 C 211.469 281.351,213.459 279.589,226.367 266.789 C 241.369 251.913,241.480 251.833,247.076 251.828 C 256.781 251.819,263.300 262.790,258.667 271.331 C 256.657 275.036,231.315 300.109,226.172 303.482 C 206.730 316.232,183.782 315.970,164.258 302.777 C 158.651 298.987,118.024 258.307,114.292 252.745 C 100.580 232.307,101.857 205.114,117.392 186.719 C 119.583 184.124,213.440 90.092,214.879 89.050 C 218.127 86.697,222.699 86.125,226.903 87.545 M287.199 210.075 C 296.984 214.893,297.016 228.853,287.253 233.800 L 284.961 234.961 234.961 234.961 L 184.961 234.961 182.698 233.814 C 173.492 229.150,172.645 216.723,181.135 210.882 C 184.512 208.559,182.209 208.650,235.555 208.723 L 284.587 208.789 287.199 210.075 " stroke="none" fill="#fbfbfb" fill-rule="evenodd"></path><path id="path2" d="M194.662 147.364 C 182.001 160.058,180.191 162.012,182.031 160.998 C 190.363 156.411,199.506 156.206,208.203 160.413 L 211.914 162.208 225.598 175.815 C 240.720 190.852,240.910 190.996,245.929 191.321 C 253.853 191.834,259.961 186.189,259.961 178.351 C 259.961 172.694,259.683 172.320,243.674 156.425 C 226.875 139.746,223.364 137.137,213.217 133.792 L 209.441 132.547 194.662 147.364 M242.708 252.652 C 239.798 253.692,239.238 254.188,225.735 267.669 C 218.993 274.401,212.686 280.450,211.719 281.113 C 202.279 287.579,190.116 287.706,180.273 281.441 C 179.106 280.697,179.104 280.697,179.770 281.475 C 187.509 290.504,177.315 305.536,165.430 302.622 L 164.258 302.334 165.430 303.310 C 174.927 311.222,194.881 314.637,209.557 310.861 C 220.993 307.919,226.992 303.872,241.576 289.259 C 258.207 272.596,258.303 272.488,259.351 269.223 C 262.617 259.040,252.638 249.104,242.708 252.652 " stroke="none" fill="#fb9d1d" fill-rule="evenodd"></path><path id="path3" d="M218.555 87.295 L 217.383 87.836 218.750 87.570 C 219.502 87.424,221.514 87.319,223.220 87.336 C 225.010 87.355,226.002 87.242,225.564 87.071 C 224.298 86.575,219.802 86.719,218.555 87.295 M215.000 89.018 C 213.440 90.172,120.317 183.309,117.900 186.133 C 115.453 188.992,113.426 191.797,113.807 191.797 C 113.907 191.797,114.916 190.522,116.050 188.965 C 118.573 185.498,213.058 90.672,215.625 89.030 C 216.592 88.411,217.189 87.902,216.953 87.898 C 216.717 87.894,215.838 88.398,215.000 89.018 M229.307 89.016 C 233.116 91.409,235.051 94.745,235.564 99.805 L 235.881 102.930 235.780 99.805 C 235.625 94.993,234.019 92.035,229.922 89.014 C 229.084 88.396,228.205 87.894,227.969 87.898 C 227.732 87.902,228.334 88.405,229.307 89.016 M234.419 105.957 C 234.031 107.119,234.045 107.162,234.576 106.468 C 234.895 106.051,235.156 105.480,235.156 105.199 C 235.156 104.328,234.861 104.631,234.419 105.957 M221.547 119.931 C 213.259 128.327,209.462 132.429,209.791 132.633 C 210.071 132.806,210.178 132.773,210.043 132.555 C 209.915 132.347,215.084 126.915,221.531 120.483 C 231.197 110.839,234.811 107.039,233.900 107.475 C 233.839 107.505,228.280 113.109,221.547 119.931 M360.653 114.844 C 360.653 115.811,360.729 116.206,360.823 115.723 C 360.916 115.239,360.916 114.448,360.823 113.965 C 360.729 113.481,360.653 113.877,360.653 114.844 M39.210 123.047 C 39.210 125.518,39.274 126.528,39.351 125.293 C 39.429 124.058,39.429 122.036,39.351 120.801 C 39.274 119.565,39.210 120.576,39.210 123.047 M241.992 154.688 C 247.575 160.273,252.231 164.844,252.338 164.844 C 252.446 164.844,247.966 160.273,242.383 154.688 C 236.800 149.102,232.144 144.531,232.037 144.531 C 231.929 144.531,236.409 149.102,241.992 154.688 M165.640 175.961 C 159.098 182.506,153.826 187.935,153.924 188.027 C 154.022 188.118,159.494 182.764,166.084 176.128 C 172.675 169.492,177.947 164.063,177.801 164.063 C 177.654 164.063,172.182 169.417,165.640 175.961 M254.281 166.895 C 255.238 167.915,256.073 168.750,256.136 168.750 C 256.429 168.750,256.119 168.399,254.395 166.781 L 252.539 165.039 254.281 166.895 M235.547 186.060 C 235.547 186.127,236.118 186.698,236.816 187.329 L 238.086 188.477 236.939 187.207 C 235.869 186.024,235.547 185.758,235.547 186.060 M150.586 191.076 C 149.082 192.541,147.987 193.742,148.152 193.745 C 148.558 193.752,153.723 188.740,153.498 188.557 C 153.400 188.477,152.090 189.611,150.586 191.076 M245.996 191.682 C 246.479 191.775,247.271 191.775,247.754 191.682 C 248.237 191.589,247.842 191.513,246.875 191.513 C 245.908 191.513,245.513 191.589,245.996 191.682 M112.390 193.848 C 110.980 196.274,109.303 199.668,109.446 199.807 C 109.515 199.873,110.487 198.186,111.608 196.057 C 113.686 192.109,114.131 190.853,112.390 193.848 M146.094 195.855 C 145.127 196.788,143.901 198.059,143.369 198.678 C 142.838 199.298,143.673 198.579,145.225 197.081 C 147.798 194.597,148.239 194.123,147.949 194.150 C 147.896 194.155,147.061 194.922,146.094 195.855 M108.636 201.270 C 108.018 202.923,107.760 203.906,107.945 203.906 C 108.046 203.906,108.399 203.115,108.729 202.148 C 109.331 200.382,109.251 199.626,108.636 201.270 M138.237 203.809 C 136.924 205.260,136.191 206.250,136.429 206.250 C 136.536 206.250,137.273 205.459,138.065 204.492 C 139.655 202.552,139.763 202.121,138.237 203.809 M107.031 205.859 C 106.456 207.997,106.761 208.302,107.386 206.214 C 107.651 205.333,107.778 204.523,107.670 204.415 C 107.562 204.307,107.274 204.957,107.031 205.859 M135.014 208.344 C 133.914 210.220,132.019 215.548,132.052 216.670 C 132.064 217.062,132.466 216.064,132.947 214.453 C 133.428 212.842,134.382 210.425,135.068 209.082 C 136.507 206.267,136.476 205.848,135.014 208.344 M184.718 209.158 C 173.266 212.339,171.952 228.369,182.698 233.814 L 184.961 234.961 234.961 234.961 L 284.961 234.961 287.253 233.800 C 297.016 228.853,296.984 214.893,287.199 210.075 L 284.587 208.789 235.555 208.723 C 196.674 208.670,186.150 208.760,184.718 209.158 M105.513 212.218 C 105.274 213.590,105.096 215.137,105.118 215.657 C 105.140 216.177,105.405 215.124,105.708 213.318 C 106.011 211.512,106.188 209.964,106.103 209.879 C 106.017 209.793,105.751 210.846,105.513 212.218 M131.783 221.680 C 131.784 223.828,131.850 224.657,131.929 223.522 C 132.008 222.387,132.007 220.629,131.927 219.616 C 131.847 218.603,131.782 219.531,131.783 221.680 M104.824 221.875 C 104.824 223.701,104.891 224.448,104.974 223.535 C 105.056 222.622,105.056 221.128,104.974 220.215 C 104.891 219.302,104.824 220.049,104.824 221.875 M132.083 226.758 C 132.079 227.574,133.494 232.127,133.540 231.445 C 133.554 231.230,133.233 229.912,132.827 228.516 C 132.420 227.119,132.085 226.328,132.083 226.758 M105.294 229.388 C 105.401 230.835,105.649 232.417,105.845 232.904 C 106.345 234.150,106.280 233.095,105.644 229.688 L 105.098 226.758 105.294 229.388 M133.594 232.240 C 133.594 234.881,138.010 239.820,159.254 260.938 C 176.995 278.573,177.492 279.040,163.281 264.721 C 154.365 255.737,145.596 246.948,143.794 245.189 C 139.670 241.165,136.331 237.015,134.957 234.207 C 133.992 232.235,133.594 231.660,133.594 232.240 M106.278 234.402 C 106.244 235.150,107.420 239.195,107.614 239.000 C 107.691 238.924,107.428 237.720,107.030 236.325 C 106.631 234.930,106.293 234.065,106.278 234.402 M108.016 240.430 C 108.634 243.471,113.882 252.745,117.079 256.445 C 123.825 264.254,163.672 303.212,163.672 301.998 C 163.672 301.788,163.276 301.496,162.793 301.351 C 161.701 301.023,120.336 259.855,117.155 255.930 C 114.325 252.438,110.910 246.708,109.115 242.439 C 108.380 240.689,107.885 239.785,108.016 240.430 M246.191 251.832 C 246.567 251.930,247.183 251.930,247.559 251.832 C 247.935 251.734,247.627 251.653,246.875 251.653 C 246.123 251.653,245.815 251.734,246.191 251.832 M256.055 255.859 C 256.894 256.719,257.668 257.422,257.776 257.422 C 257.883 257.422,257.284 256.719,256.445 255.859 C 255.606 255.000,254.832 254.297,254.724 254.297 C 254.617 254.297,255.216 255.000,256.055 255.859 M230.851 262.402 L 227.539 265.820 230.957 262.509 C 234.132 259.433,234.553 258.984,234.269 258.984 C 234.210 258.984,232.672 260.522,230.851 262.402 M39.210 276.563 C 39.210 279.033,39.274 280.044,39.351 278.809 C 39.429 277.573,39.429 275.552,39.351 274.316 C 39.274 273.081,39.210 274.092,39.210 276.563 M254.092 276.660 L 250.977 279.883 254.199 276.767 C 257.192 273.873,257.600 273.438,257.315 273.438 C 257.256 273.438,255.806 274.888,254.092 276.660 M215.796 277.441 L 214.648 278.711 215.918 277.564 C 216.616 276.933,217.188 276.361,217.188 276.294 C 217.188 275.992,216.865 276.258,215.796 277.441 M360.659 284.961 C 360.662 286.035,360.737 286.428,360.827 285.834 C 360.917 285.241,360.915 284.362,360.822 283.881 C 360.729 283.401,360.656 283.887,360.659 284.961 M245.093 285.645 L 243.945 286.914 245.215 285.767 C 245.913 285.136,246.484 284.564,246.484 284.497 C 246.484 284.195,246.162 284.461,245.093 285.645 M231.811 298.926 L 230.664 300.195 231.934 299.048 C 232.632 298.417,233.203 297.846,233.203 297.778 C 233.203 297.477,232.881 297.742,231.811 298.926 M193.652 312.789 C 194.995 312.865,197.192 312.865,198.535 312.789 C 199.878 312.713,198.779 312.651,196.094 312.651 C 193.408 312.651,192.310 312.713,193.652 312.789 M60.140 339.941 C 61.098 340.962,61.933 341.797,61.995 341.797 C 62.289 341.797,61.979 341.446,60.254 339.827 L 58.398 338.086 60.140 339.941 M108.301 360.426 C 108.677 360.524,109.292 360.524,109.668 360.426 C 110.044 360.327,109.736 360.247,108.984 360.247 C 108.232 360.247,107.925 360.327,108.301 360.426 M290.723 360.426 C 291.099 360.524,291.714 360.524,292.090 360.426 C 292.466 360.327,292.158 360.247,291.406 360.247 C 290.654 360.247,290.347 360.327,290.723 360.426 M115.527 360.829 C 116.226 360.916,117.368 360.916,118.066 360.829 C 118.765 360.743,118.193 360.672,116.797 360.672 C 115.400 360.672,114.829 360.743,115.527 360.829 M282.324 360.829 C 283.022 360.916,284.165 360.916,284.863 360.829 C 285.562 360.743,284.990 360.672,283.594 360.672 C 282.197 360.672,281.626 360.743,282.324 360.829 " stroke="none" fill="#b2b2b2" fill-rule="evenodd"></path><path id="path4" d="M221.394 87.392 C 222.096 87.479,223.150 87.478,223.737 87.388 C 224.324 87.299,223.750 87.228,222.461 87.230 C 221.172 87.233,220.692 87.306,221.394 87.392 M198.026 106.152 L 196.680 107.617 198.145 106.271 C 198.950 105.531,199.609 104.871,199.609 104.806 C 199.609 104.508,199.279 104.789,198.026 106.152 M229.688 111.523 C 228.087 113.135,226.865 114.453,226.973 114.453 C 227.080 114.453,228.478 113.135,230.078 111.523 C 231.679 109.912,232.900 108.594,232.793 108.594 C 232.686 108.594,231.288 109.912,229.688 111.523 M191.592 112.598 L 188.477 115.820 191.699 112.704 C 193.472 110.991,194.922 109.541,194.922 109.482 C 194.922 109.197,194.486 109.605,191.592 112.598 M221.479 119.824 L 216.602 124.805 221.582 119.928 C 226.208 115.398,226.740 114.844,226.459 114.844 C 226.402 114.844,224.161 117.085,221.479 119.824 M167.186 137.012 L 150.977 153.320 167.285 137.111 C 182.443 122.045,183.769 120.703,183.494 120.703 C 183.440 120.703,176.101 128.042,167.186 137.012 M193.359 148.242 C 184.660 156.943,177.631 164.063,177.738 164.063 C 177.845 164.063,185.051 156.943,193.750 148.242 C 202.449 139.541,209.479 132.422,209.371 132.422 C 209.264 132.422,202.059 139.541,193.359 148.242 M134.568 169.629 L 120.508 183.789 134.668 169.729 C 142.456 161.995,148.828 155.623,148.828 155.568 C 148.828 155.293,147.636 156.468,134.568 169.629 M146.094 195.508 C 145.145 196.475,144.456 197.266,144.564 197.266 C 144.671 197.266,145.536 196.475,146.484 195.508 C 147.433 194.541,148.122 193.750,148.014 193.750 C 147.907 193.750,147.043 194.541,146.094 195.508 M142.749 198.926 L 141.602 200.195 142.871 199.048 C 143.569 198.417,144.141 197.846,144.141 197.778 C 144.141 197.477,143.818 197.742,142.749 198.926 M105.177 217.773 C 105.181 218.633,105.261 218.938,105.354 218.452 C 105.448 217.967,105.444 217.263,105.347 216.890 C 105.249 216.517,105.172 216.914,105.177 217.773 M131.384 221.680 C 131.385 223.398,131.454 224.053,131.537 223.134 C 131.619 222.215,131.618 220.809,131.534 220.009 C 131.450 219.209,131.382 219.961,131.384 221.680 M105.177 225.586 C 105.181 226.445,105.261 226.751,105.354 226.265 C 105.448 225.779,105.444 225.076,105.347 224.702 C 105.249 224.329,105.172 224.727,105.177 225.586 M151.172 253.247 C 151.172 253.314,151.743 253.886,152.441 254.517 L 153.711 255.664 152.564 254.395 C 151.494 253.211,151.172 252.945,151.172 253.247 M118.359 257.544 C 118.359 257.611,118.931 258.183,119.629 258.814 L 120.898 259.961 119.751 258.691 C 118.682 257.508,118.359 257.242,118.359 257.544 M155.469 257.544 C 155.469 257.611,156.040 258.183,156.738 258.814 L 158.008 259.961 156.861 258.691 C 155.791 257.508,155.469 257.242,155.469 257.544 M160.742 262.891 C 162.235 264.395,163.544 265.625,163.651 265.625 C 163.758 265.625,162.625 264.395,161.133 262.891 C 159.640 261.387,158.331 260.156,158.224 260.156 C 158.117 260.156,159.250 261.387,160.742 262.891 M171.712 273.828 C 180.311 282.605,180.509 282.855,181.465 286.142 C 184.339 296.030,174.141 305.267,164.258 301.727 C 163.684 301.522,163.585 301.566,163.885 301.894 C 164.625 302.703,168.570 303.198,170.878 302.771 C 177.593 301.530,182.147 296.162,182.176 289.453 C 182.199 284.133,181.830 283.564,172.155 274.007 L 163.867 265.820 171.712 273.828 M146.484 285.742 C 147.213 286.494,147.897 287.109,148.005 287.109 C 148.112 287.109,147.604 286.494,146.875 285.742 C 146.146 284.990,145.462 284.375,145.355 284.375 C 145.247 284.375,145.756 284.990,146.484 285.742 " stroke="none" fill="#9c6614" fill-rule="evenodd"></path></g></svg>